<mxfile host="Electron" agent="Mozilla/5.0 (Windows NT 10.0; Win64; x64) AppleWebKit/537.36 (KHTML, like Gecko) draw.io/24.7.8 Chrome/128.0.6613.36 Electron/32.0.1 Safari/537.36" version="24.7.8">
  <diagram name="Page-1" id="vwzhQClkfowtvtcKZdUm">
    <mxGraphModel dx="2284" dy="1936" grid="1" gridSize="10" guides="1" tooltips="1" connect="1" arrows="1" fold="1" page="1" pageScale="1" pageWidth="850" pageHeight="1100" math="0" shadow="0">
      <root>
        <mxCell id="0" />
        <mxCell id="1" parent="0" />
        <mxCell id="cI5EF-JjfwaBmZ3LnjAF-1" value="Start" style="ellipse;whiteSpace=wrap;html=1;" parent="1" vertex="1">
          <mxGeometry x="-240" y="330" width="120" height="80" as="geometry" />
        </mxCell>
        <mxCell id="cI5EF-JjfwaBmZ3LnjAF-2" value="Input ProjectedHours&lt;div&gt;Input WholesaleCostMaterials&lt;/div&gt;" style="shape=parallelogram;html=1;strokeWidth=2;perimeter=parallelogramPerimeter;whiteSpace=wrap;rounded=1;arcSize=12;size=0.23;" parent="1" vertex="1">
          <mxGeometry x="-60" y="320" width="250" height="110" as="geometry" />
        </mxCell>
        <mxCell id="cI5EF-JjfwaBmZ3LnjAF-3" value="Plan" style="rounded=1;whiteSpace=wrap;html=1;absoluteArcSize=1;arcSize=14;strokeWidth=2;" parent="1" vertex="1">
          <mxGeometry x="-170" y="-10" width="120" height="70" as="geometry" />
        </mxCell>
        <mxCell id="cI5EF-JjfwaBmZ3LnjAF-15" style="edgeStyle=orthogonalEdgeStyle;rounded=0;orthogonalLoop=1;jettySize=auto;html=1;" parent="1" source="cI5EF-JjfwaBmZ3LnjAF-4" target="cI5EF-JjfwaBmZ3LnjAF-5" edge="1">
          <mxGeometry relative="1" as="geometry" />
        </mxCell>
        <mxCell id="cI5EF-JjfwaBmZ3LnjAF-4" value="MaterialCost = WholesaleCostMaterials*1.2&lt;div&gt;&lt;br&gt;&lt;/div&gt;&lt;div&gt;LaborCost = ProjectedHours&lt;/div&gt;&lt;div&gt;&lt;br&gt;&lt;/div&gt;&lt;div&gt;TotalCost = MaterialCost+LaborCost&lt;/div&gt;" style="rounded=1;whiteSpace=wrap;html=1;absoluteArcSize=1;arcSize=14;strokeWidth=2;" parent="1" vertex="1">
          <mxGeometry x="260" y="320" width="200" height="145" as="geometry" />
        </mxCell>
        <mxCell id="cI5EF-JjfwaBmZ3LnjAF-16" value="" style="edgeStyle=orthogonalEdgeStyle;rounded=0;orthogonalLoop=1;jettySize=auto;html=1;" parent="1" source="cI5EF-JjfwaBmZ3LnjAF-5" target="cI5EF-JjfwaBmZ3LnjAF-7" edge="1">
          <mxGeometry relative="1" as="geometry" />
        </mxCell>
        <mxCell id="cI5EF-JjfwaBmZ3LnjAF-5" value="&lt;span style=&quot;font-size: 10px;&quot;&gt;Print &quot;Total Cost of Job:&quot; +TotalCost&lt;/span&gt;&lt;div&gt;&lt;span style=&quot;font-size: 10px;&quot;&gt;Print &quot;End of program&quot;&lt;/span&gt;&lt;/div&gt;" style="shape=parallelogram;html=1;strokeWidth=2;perimeter=parallelogramPerimeter;rounded=1;arcSize=12;size=0.23;align=center;fontFamily=Helvetica;" parent="1" vertex="1">
          <mxGeometry x="500" y="315.31" width="280" height="154.38" as="geometry" />
        </mxCell>
        <mxCell id="cI5EF-JjfwaBmZ3LnjAF-7" value="Stop" style="strokeWidth=2;html=1;shape=mxgraph.flowchart.start_1;whiteSpace=wrap;" parent="1" vertex="1">
          <mxGeometry x="880" y="362.5" width="100" height="60" as="geometry" />
        </mxCell>
        <mxCell id="cI5EF-JjfwaBmZ3LnjAF-8" value="The goal of this flow is to calculate and display the cost of a remodeling project" style="whiteSpace=wrap;html=1;aspect=fixed;" parent="1" vertex="1">
          <mxGeometry x="-200" y="100" width="180" height="180" as="geometry" />
        </mxCell>
        <mxCell id="cI5EF-JjfwaBmZ3LnjAF-12" style="edgeStyle=orthogonalEdgeStyle;rounded=0;orthogonalLoop=1;jettySize=auto;html=1;exitX=1;exitY=0.5;exitDx=0;exitDy=0;entryX=0.148;entryY=0.445;entryDx=0;entryDy=0;entryPerimeter=0;" parent="1" source="cI5EF-JjfwaBmZ3LnjAF-1" target="cI5EF-JjfwaBmZ3LnjAF-2" edge="1">
          <mxGeometry relative="1" as="geometry">
            <mxPoint x="-50" y="370" as="targetPoint" />
          </mxGeometry>
        </mxCell>
        <mxCell id="cI5EF-JjfwaBmZ3LnjAF-14" style="edgeStyle=orthogonalEdgeStyle;rounded=0;orthogonalLoop=1;jettySize=auto;html=1;exitX=1;exitY=0.5;exitDx=0;exitDy=0;entryX=-0.015;entryY=0.379;entryDx=0;entryDy=0;entryPerimeter=0;" parent="1" source="cI5EF-JjfwaBmZ3LnjAF-2" target="cI5EF-JjfwaBmZ3LnjAF-4" edge="1">
          <mxGeometry relative="1" as="geometry" />
        </mxCell>
      </root>
    </mxGraphModel>
  </diagram>
</mxfile>
